<?xml version="1.0" encoding="utf-8"?>
<!-- Generator: Adobe Illustrator 24.1.1, SVG Export Plug-In . SVG Version: 6.00 Build 0)  -->
<svg version="1.1" id="Layer_1" xmlns="http://www.w3.org/2000/svg" xmlns:xlink="http://www.w3.org/1999/xlink" x="0px" y="0px"
	 viewBox="0 0 841.9 363.9" style="enable-background:new 0 0 841.9 363.9;" xml:space="preserve">
<style type="text/css">
	.st0{fill:#7CC5AD;}
	.st1{fill:#282F6F;}
</style>
<path class="st0" d="M350.6,358.6v-59c0-3.8,1.8-6.2,5.3-6.2h1.8c3.3,0,4.6,1.4,6.6,4.2l34.3,48.7v-47.9c0-3.3,1.4-5,4.6-5h1.3
	c3,0,4.5,1.7,4.5,5v59c0,3.9-1.9,6.2-5.2,6.2h-0.9c-3.3,0-4.2-1-5.9-3.3L361,309.2v49.5c0,3.3-1.5,5-4.7,5h-1.2
	C352,363.7,350.6,362,350.6,358.6"/>
<path class="st0" d="M423.9,357.1V300c0-3.8,2.4-6.2,5.9-6.2H470c3.4,0,5.1,1.7,5.1,4.6v0.6c0,3-1.7,4.6-5.1,4.6h-35.1v19.4h27.1
	c3.5,0,5.2,1.5,5.2,4.4v0.3c0,3-1.7,4.6-5.2,4.6h-27.1v21h35.7c3.4,0,5,1.5,5,4.4v0.5c0,3.1-1.6,4.8-5,4.8h-40.9
	C426.2,363.2,423.9,360.9,423.9,357.1"/>
<path class="st0" d="M505.7,303.7h-19c-3.3,0-5.2-1.7-5.2-4.7v-0.5c0-3,1.8-4.6,5.2-4.6h49.1c3.3,0,5,1.6,5,4.6v0.5
	c0,3-1.7,4.7-5,4.7h-19v54.9c0,3.3-1.7,5-4.9,5h-1.5c-3.1,0-4.7-1.7-4.7-5V303.7z"/>
<path class="st0" d="M564.4,359.6l-16.2-63.1c-0.1-0.5,2.2-3.1,6.5-3.1c2.9,0,5.4,1.7,6.4,6.4l11.3,51.1l13.2-43.7
	c0.9-3.3,3-5,7.3-5c4.3,0,6.2,1.7,7.3,5l13,43.5l11.5-51c1-4.5,3-6.3,6.1-6.3c4.1,0,6.4,2.6,6.2,3.1l-16,63.1
	c-0.8,3.2-2.8,4.4-7.5,4.4c-4.3,0-6.2-1.3-7.2-4.5L593,314.6l-14.1,44.8c-0.9,3.2-2.7,4.5-7,4.5C567.2,364,565.2,362.9,564.4,359.6"
	/>
<path class="st0" d="M644.2,328.7c0-21.2,14.7-36.3,35.2-36.3c20.7,0,35.1,14.8,35.1,36c0,21.2-14.6,36.2-35.2,36.2
	C658.6,364.6,644.2,349.8,644.2,328.7 M703.3,328.7c0-15.5-10-26.5-24-26.5c-14.1,0-23.9,10.7-23.9,26.3c0,15.5,10,26.4,24,26.4
	C693.5,354.9,703.3,344.1,703.3,328.7"/>
<path class="st0" d="M726.5,358V300c0-3.8,2.4-6.2,5.9-6.2h19.7c17,0,26,7.1,26,20.8c0,10.4-5.7,17.5-16.3,19.7
	c-1.4,0.3-2.9,0.5-4.4,0.6l20.3,24.1c0.5,0.6-1.8,4.5-6.4,4.5c-2.9,0-4.8-1.2-7.2-4.3l-19-23.3h-7.6v22.5c0,3-1.6,5-4.8,5h-1.5
	C728.1,363.7,726.5,361.6,726.5,358 M751.9,327.4c10.2,0,15-4.7,15-12.2c0-8.1-5.1-12.2-15.3-12.2h-14.3v24.5H751.9z"/>
<path class="st0" d="M789.7,298.4c0-3.3,1.6-5,4.6-5h1.6c3.2,0,4.8,1.7,4.8,5v27.9l27.8-29.4c2.4-2.9,4.2-3.5,6.1-3.5
	c4.7,0,6.2,4.5,6,4.9L813,327.7l28.4,31.1c0.4,0.5-1.5,4.8-6.3,4.8c-2.4,0-4.2-0.9-6-3.1l-28.3-30.9v29c0,3.3-1.6,5-4.8,5h-1.6
	c-3,0-4.6-1.7-4.6-5V298.4z"/>
<path class="st1" d="M0,15C0,8,4.6,3,11.2,3h142.4c5.8,0,9.3,2.7,9.3,7.7v1.9c0,5.8-3.5,8.1-9.3,8.1H19.7v103.7h99.5
	c6.2,0,9.3,2.7,9.3,8.1v1.2c0,5.4-3.1,8.1-9.3,8.1H19.7v103.7c0,5.8-3.1,8.9-8.9,8.9H8.1c-5.4,0-8.1-3.1-8.1-9.3V15z"/>
<path class="st1" d="M188.1,9.5c0-5.8,2.7-8.9,8.2-8.9h2.7c5.8,0,8.9,3.1,8.9,8.9v236.1c0,5.8-3.1,9-8.9,9h-2.7
	c-5.4,0-8.2-3.1-8.2-9V9.5z"/>
<path class="st1" d="M248.2,245.7V14.3c0-7,4.7-12,11.3-12h64.4c59.4,0,92.4,27.6,92.4,75.3c0,48.9-32.2,76.9-94.3,76.9H268v91.2
	c0,5-3.1,8.9-8.9,8.9h-2.7C250.9,254.6,248.2,251.5,248.2,245.7 M395.7,78.4c0-37.6-24.4-58.2-71.4-58.2H268V137h55.5
	C371.2,137,395.7,116,395.7,78.4"/>
<path class="st1" d="M445.7,245.3V14.7c0-7,4.7-12,11.3-12h67.8C583.6,2.7,615,27.5,615,74c0,46.1-31.8,72.1-85.3,72.1h-8.5
	l92.6,99.2c1.1,1.5-3.5,9.3-12,9.3c-3.5,0-7.7-1.9-12-7l-93.8-101.5h-31v99.6c0,5-2.7,8.9-8.9,8.9h-2.3
	C448.4,254.6,445.7,251.5,445.7,245.3 M526.7,129.4c45.7,0,67.8-21.3,67.8-54.6c0-35.3-23.2-54.3-69-54.3h-60.4v108.9H526.7z"/>
<path class="st1" d="M621,248.8L716.3,7.4C718.2,2.7,721.7,0,731,0c9.3,0,12.8,2.7,14.8,7.4l95.6,241.4c0.4,1.6-4.3,4.7-9.3,5.4
	c-5.1,0.8-10.9-0.8-14-8.9l-31.5-78.5h-112l-31.1,78.5c-3.1,8.6-8.9,10.1-14,8.9C624.5,253.5,620.6,250,621,248.8 M780.4,149.3
	L731,22.6l-50.2,126.7H780.4z"/>
</svg>
