<svg height="512" viewBox="0 0 64 64" width="512" xmlns="http://www.w3.org/2000/svg"><g id="_11-documents" data-name="11-documents"><path d="m18 1v10h-10z" fill="#cdd2e1"/><path d="m43 16v13l-9-9-6 6-6-6-7 7v-11z" fill="#8ed8f8"/><path d="m56 7v56h-42v-6h36v-50z" fill="#5ce0bf"/><path d="m50 7v50h-42v-46h10v-10h32zm-7 25v-16h-28v16z" fill="#f6fafd"/><path d="m22 20-7 7v5h19l-6-6z" fill="#5ce0bf"/><path d="m43 29-9-9-6 6 6 6h9z" fill="#4fd3b2"/><path d="m28.456 16h14.544v16h-27.816a48.4 48.4 0 0 0 -7.184 25h42v-56a97.982 97.982 0 0 0 -21.544 15z" fill="#e1e4ed"/><path d="m53 7h-3v50h-36v3h39z" fill="#4fd3b2"/><g fill="#cdd2e1"><path d="m14 37h2v2h-2z"/><path d="m18 37h2v2h-2z"/><path d="m22 37h22v2h-22z"/><path d="m14 41h24v2h-24z"/><path d="m14 45h30v2h-30z"/><path d="m40 41h4v2h-4z"/></g></g></svg>