<?xml version="1.0" standalone="no"?>
<!DOCTYPE svg PUBLIC "-//W3C//DTD SVG 20010904//EN"
 "http://www.w3.org/TR/2001/REC-SVG-20010904/DTD/svg10.dtd">
<svg version="1.0" xmlns="http://www.w3.org/2000/svg"
 width="500.000000pt" height="500.000000pt" viewBox="0 0 500.000000 500.000000"
 preserveAspectRatio="xMidYMid meet">
<metadata>
Created by potrace 1.11, written by Peter Selinger 2001-2013
</metadata>
<g transform="translate(0.000000,500.000000) scale(0.100000,-0.100000)"
fill="#000000" stroke="none">
<path d="M0 2500 l0 -2500 125 0 125 0 0 663 c0 557 2 666 14 683 14 18 32 19
424 22 391 3 410 2 433 -17 20 -16 22 -23 14 -47 l-10 -29 -383 -3 -382 -2 0
-280 0 -280 279 0 c302 0 311 -2 311 -54 0 -45 -8 -46 -307 -46 l-283 0 0
-305 0 -305 455 0 455 0 2 682 3 683 40 3 c29 3 43 -1 52 -14 10 -14 13 -156
13 -686 l0 -668 105 0 105 0 0 660 0 661 25 24 c24 25 25 25 227 25 112 0 235
-5 273 -10 253 -36 386 -174 388 -400 1 -220 -118 -359 -345 -405 -53 -10
-136 -15 -268 -15 l-190 0 0 -270 0 -270 480 0 480 0 0 660 0 661 26 26 25 25
257 -5 c275 -5 324 -12 428 -63 62 -29 128 -98 157 -162 28 -64 35 -208 14
-283 -48 -165 -182 -255 -396 -268 l-93 -6 262 -280 c144 -154 265 -281 269
-282 3 -1 71 163 150 365 389 993 379 969 411 982 36 15 92 6 112 -18 8 -9
133 -317 279 -684 l264 -668 87 0 88 0 0 2119 0 2120 -86 45 -86 44 -191 -149
c-105 -82 -193 -147 -195 -144 -3 3 21 104 53 225 32 121 56 222 54 224 -2 2
-83 45 -179 95 l-175 91 215 0 216 0 33 138 c19 75 37 143 41 151 5 9 37 -30
101 -125 l94 -139 53 -3 52 -3 0 155 0 156 -1727 0 c-1349 -1 -1732 -3 -1744
-13 -9 -7 -31 -37 -50 -67 -31 -51 -34 -53 -40 -30 -4 14 -7 37 -8 53 -1 15
-5 27 -9 27 -5 0 -42 -11 -82 -25 l-74 -25 39 40 39 40 -672 0 -672 0 0 -2500z
m1179 1993 c-4 -71 -2 -78 16 -81 80 -16 76 -21 -68 -84 l-137 -61 -87 -143
c-48 -79 -89 -142 -91 -139 -2 2 -7 38 -11 79 l-6 75 -114 -49 c-63 -28 -116
-48 -118 -46 -2 2 50 38 117 81 l120 77 0 78 c0 44 4 82 10 85 5 3 56 15 112
25 l103 20 73 80 c41 44 76 80 79 80 3 0 4 -35 2 -77z m2541 -648 c11 -110 23
-217 26 -237 l6 -38 261 6 c262 6 262 6 242 -13 -16 -16 -404 -343 -412 -347
-2 -2 114 -720 122 -754 3 -13 2 -22 -3 -20 -5 1 -102 109 -216 238 -114 129
-213 239 -220 244 -9 6 -91 -56 -279 -213 -147 -121 -267 -218 -267 -214 0 6
272 617 296 665 13 25 9 32 -121 211 -74 102 -135 191 -135 197 0 8 10 11 29
7 16 -4 118 -7 227 -7 l196 -2 100 219 c55 120 104 229 109 242 5 13 12 22 14
19 2 -2 13 -94 25 -203z m-2576 -136 c-36 -72 -64 -132 -62 -134 2 -2 59 -7
127 -12 l124 -8 -234 -156 -234 -156 -84 -199 c-46 -109 -87 -203 -91 -207 -7
-8 -24 57 -50 191 -7 34 -17 62 -22 62 -6 0 -100 -54 -209 -120 -109 -65 -199
-116 -199 -113 0 3 92 99 204 213 l203 207 8 146 7 147 145 0 145 0 140 135
c77 74 142 135 144 135 2 0 -25 -59 -62 -131z m977 -364 l-57 -260 229 -3 230
-2 -285 -214 c-277 -208 -285 -215 -296 -258 -5 -23 -54 -227 -108 -451 -64
-265 -101 -402 -106 -390 -4 10 -39 144 -79 298 -39 154 -74 283 -78 287 -3 4
-141 -87 -306 -202 -165 -114 -301 -207 -303 -205 -2 2 113 154 256 339 l259
336 -48 242 c-27 133 -49 246 -49 250 0 4 98 8 219 8 l218 0 179 245 c98 134
179 244 180 242 1 -1 -24 -119 -55 -262z"/>
<path d="M1700 954 l0 -316 223 4 c198 4 228 7 277 26 74 29 125 73 157 136
24 45 27 63 28 146 0 109 -18 162 -76 219 -75 76 -189 101 -456 101 l-153 0 0
-316z"/>
<path d="M2770 975 l0 -295 193 0 c276 0 360 21 439 108 46 51 62 100 62 187
0 89 -16 137 -66 191 -74 80 -180 104 -465 104 l-163 0 0 -295z"/>
<path d="M4202 1219 c-6 -15 -65 -165 -132 -334 -67 -168 -120 -308 -117 -311
2 -2 121 -3 263 -2 l260 3 -123 315 c-154 395 -138 361 -151 329z"/>
<path d="M2770 295 l0 -295 351 0 352 0 -24 29 c-13 17 -134 149 -269 295
l-245 265 -82 0 -83 1 0 -295z"/>
<path d="M3901 448 c-5 -13 -46 -117 -91 -232 -45 -114 -79 -210 -77 -212 2
-2 220 -3 484 -2 l480 3 -91 232 -91 233 -303 0 -302 0 -9 -22z"/>
</g>
</svg>
